<svg xmlns="http://www.w3.org/2000/svg" width="105" height="92"><g fill="none"><path fill="#424242" d="M29.75 10.527C17.206 10.527 7 20.733 7 33.277s10.206 22.75 22.75 22.75S52.5 45.821 52.5 33.277s-10.206-22.75-22.75-22.75zm0 42c-10.614 0-19.25-8.636-19.25-19.25s8.636-19.25 19.25-19.25S49 22.663 49 33.277s-8.636 19.25-19.25 19.25z"/><path fill="#424242" d="M29.75.027c-3.86 0-7 3.14-7 7s3.14 7 7 7 7-3.14 7-7-3.14-7-7-7zm0 10.5c-1.93 0-3.5-1.57-3.5-3.5s1.57-3.5 3.5-3.5 3.5 1.57 3.5 3.5-1.57 3.5-3.5 3.5z"/><path fill="#424242" d="M28 7.027h3.5v5.25H28zm-16.987 8.237l2.475-2.475 3.5 3.5-2.476 2.475z"/><path fill="#424242" d="M7.513 16.289l7-7 2.475 2.474-7 7zm34.999-.004l3.5-3.5 2.474 2.476-3.5 3.5z"/><path fill="#424242" d="M42.512 11.766l2.475-2.475 7 7-2.474 2.476z"/><circle cx="29.75" cy="33.277" r="3.5" fill="#424242"/><path fill="#424242" d="M28.267 32.353l8.747-14.001 2.968 1.854-8.747 14.001z"/><path fill="#4E8F51" d="M28 17.527h3.5v3.5H28zm0 28h3.5v3.5H28zM20.362 20.53l3.03-1.752 1.75 3.028-3.03 1.751zm14.001 24.227l3.03-1.752 1.75 3.027-3.03 1.752zM15.235 26.922l1.752-3.03 3.027 1.75-1.75 3.03zM39.478 40.91l1.75-3.03 3.029 1.75-1.752 3.03zM14 31.527h3.5v3.5H14zm28 0h3.5v3.5H42zm-26.754 8.105l3.027-1.75 1.751 3.03-3.026 1.75zm24.231-13.997l3.026-1.75 1.752 3.03-3.026 1.75zM20.354 46.042l1.748-3.027 3.031 1.75-1.748 3.028z"/><path fill="#424242" d="M22.75 70.027c-5.79 0-10.5 4.71-10.5 10.5 0 5.791 4.71 10.5 10.5 10.5s10.5-4.709 10.5-10.5c0-5.79-4.71-10.5-10.5-10.5zm0 17.5c-3.86 0-7-3.14-7-7s3.14-7 7-7 7 3.14 7 7-3.14 7-7 7z"/><path fill="#424242" d="M21 78.777h3.5v3.5H21zm61.25-8.75c-5.79 0-10.5 4.71-10.5 10.5 0 5.791 4.71 10.5 10.5 10.5s10.5-4.709 10.5-10.5c0-5.79-4.71-10.5-10.5-10.5zm0 17.5c-3.86 0-7-3.14-7-7s3.14-7 7-7 7 3.14 7 7-3.14 7-7 7z"/><path fill="#424242" d="M80.5 78.777H84v3.5h-3.5zm-49 0h42v3.5h-42zm72.768-18.922l-11.786-8.421-7.764-23.309a5.241 5.241 0 0 0-4.981-3.597H50.75v3.5h28.984c.756 0 1.423.48 1.66 1.202l7.945 23.852c.118.35.344.655.644.87l11.517 8.227v16.598H91v3.5h12.25c.968 0 1.75-.782 1.75-1.75v-19.25c0-.565-.273-1.095-.732-1.422zM3.5 78.777v-50.05a.7.7 0 0 1 .7-.7h6.3v-3.5H4.2a4.205 4.205 0 0 0-4.2 4.2v51.8c0 .968.784 1.75 1.75 1.75H14v-3.5H3.5z"/><path fill="#4E8F51" d="M96.25 71.777h7v3.5h-7zm-94.5 0h10.5v3.5H1.75z"/><path fill="#424242" d="M75.25 50.777a1.75 1.75 0 0 1-1.75-1.75v-12.25c0-.964.784-1.75 1.75-1.75H84v-3.5h-8.75a5.256 5.256 0 0 0-5.25 5.25v12.25a5.256 5.256 0 0 0 5.25 5.25H91v-3.5H75.25zm-1.75 7h7v3.5h-7z"/><path fill="#4E8F51" d="M35 71.777h33.25v3.5H35z"/><path fill="#424242" d="M1.75 50.777h7v3.5h-7z"/></g></svg>