<svg xmlns="http://www.w3.org/2000/svg" width="105" height="105"><g fill="none"><path fill="#424242" d="M100.078 0H4.922A4.928 4.928 0 0 0 0 4.922v63.984a4.928 4.928 0 0 0 4.922 4.922H40.86l-1.342 14.766H27.89a1.64 1.64 0 1 0 0 3.281h49.218a1.64 1.64 0 1 0 0-3.281H65.482L64.14 73.828h35.938A4.928 4.928 0 0 0 105 68.906V4.922A4.928 4.928 0 0 0 100.078 0zM42.812 88.594l1.342-14.766h16.692l1.342 14.766H42.812zm58.907-19.688c0 .906-.737 1.64-1.64 1.64H4.921c-.904 0-1.64-.734-1.64-1.64v-8.203h98.437v8.203zm0-11.484H3.28v-52.5c0-.906.737-1.64 1.64-1.64h95.157c.904 0 1.64.734 1.64 1.64v52.5z"/><path fill="#4E8F51" d="M51.593 28.063L39.326 21.93c.049-.472.049-.538.049-.602 0-6.44-3.603-11.484-8.203-11.484s-8.203 5.045-8.203 11.484c0 .064 0 .13.049.602l-12.267 6.133a1.642 1.642 0 0 0-.907 1.468v3.282c0 .907.735 1.64 1.64 1.64H24.97l1.035 4.14-7.161 4.296a1.64 1.64 0 0 0-.796 1.408v1.64a1.64 1.64 0 0 0 1.64 1.641h6.507c.7 2.18 2.415 4.922 4.983 4.922 2.56 0 4.274-2.743 4.97-4.922h6.51a1.64 1.64 0 0 0 1.64-1.64v-1.641c0-.578-.302-1.11-.796-1.406l-7.161-4.297 1.035-4.14H50.86a1.64 1.64 0 0 0 1.641-1.642v-3.28c0-.623-.351-1.19-.907-1.47zm-2.374 3.109H36.094a1.64 1.64 0 0 0-1.592 1.243l-1.64 6.563c-.174.7.128 1.432.748 1.805l5.857 3.514h-4.62c-.83 0-1.534.654-1.633 1.48-.191 1.583-1.486 3.442-2.047 3.442-.55 0-1.846-1.86-2.046-3.514a1.64 1.64 0 0 0-1.624-1.408h-4.62l5.859-3.516a1.644 1.644 0 0 0 .748-1.805l-1.641-6.562a1.643 1.643 0 0 0-1.593-1.242H13.125v-.627l10.23-5.115.196 1.171a1.64 1.64 0 1 0 3.247-.46c-.473-4.058-.543-4.772-.548-4.813 0-4.446 2.254-8.203 4.922-8.203 2.668 0 4.922 3.757 4.923 8.128-.008.116-.077.83-.55 4.887a1.64 1.64 0 0 0 1.399 1.815 1.63 1.63 0 0 0 1.847-1.356l.195-1.171 10.233 5.117v.627z"/><path fill="#4E8F51" d="M29.531 19.688h3.281v3.281h-3.281z"/><path fill="#424242" d="M74.648 8.203c-6.785 0-12.304 5.52-12.304 12.305s5.519 12.305 12.304 12.305c6.786 0 12.305-5.52 12.305-12.305 0-6.786-5.519-12.305-12.305-12.305zm0 21.328c-4.976 0-9.023-4.049-9.023-9.023 0-4.975 4.047-9.024 9.023-9.024s9.024 4.05 9.024 9.024c0 4.974-4.048 9.023-9.024 9.023z"/><path fill="#4E8F51" d="M75.469 19.688v-3.282h-3.281v4.922c0 .907.734 1.64 1.64 1.64h4.922v-3.28h-3.281z"/><path fill="#424242" d="M55.781 36.094h18.047v3.281H55.781zm22.969 0h14.766v3.281H78.75zM55.781 49.219h19.688V52.5H55.781zm24.61 0h13.125V52.5H80.391zm-24.61-6.563h8.203v3.281h-8.203zm13.125 0h24.609v3.281H68.906zM47.578 63.984h9.844v3.281h-9.844zm22.969 31.172H4.922A4.928 4.928 0 0 0 0 100.078v3.281A1.64 1.64 0 0 0 1.64 105h72.188a1.64 1.64 0 0 0 1.64-1.64v-3.282a4.928 4.928 0 0 0-4.921-4.922zm1.64 6.563H3.281v-1.64c0-.906.737-1.641 1.64-1.641h65.626c.904 0 1.64.734 1.64 1.64v1.64zm27.891-6.563H86.953a4.928 4.928 0 0 0-4.922 4.922v3.281a1.64 1.64 0 0 0 1.64 1.641h19.688a1.64 1.64 0 0 0 1.641-1.64v-3.282a4.928 4.928 0 0 0-4.922-4.922zm1.64 6.563H85.313v-1.64c0-.906.737-1.641 1.641-1.641h13.125c.904 0 1.64.734 1.64 1.64v1.64z"/><path fill="#4E8F51" d="M88.594 78.75h3.281v3.281h-3.281zm6.562 0h3.281v3.281h-3.281zm-13.125 0h3.281v3.281h-3.281zm-6.562 0h3.281v3.281h-3.281zm-55.781 0h3.281v3.281h-3.281zm6.562 0h3.281v3.281H26.25zm-13.125 0h3.281v3.281h-3.281zm-6.562 0h3.281v3.281H6.563z"/><path fill="#424242" d="M50.859 78.75h3.281v3.281h-3.281z"/></g></svg>