<svg width="19" height="19" xmlns="http://www.w3.org/2000/svg"><path d="M4.285 6.816v12.166H.233V6.816h4.052zm.257-3.757c.013 1.166-.871 2.1-2.283 2.1h-.025C.872 5.158 0 4.224 0 3.058 0 1.87.908.96 2.283.96c1.388 0 2.247.91 2.26 2.1zm6.016 5.486c.533-.833 1.494-2.012 3.646-2.012 2.664 0 4.653 1.744 4.653 5.476v6.973h-4.039v-6.507c0-1.632-.59-2.75-2.05-2.75-1.117 0-1.78.75-2.075 1.474-.098.27-.135.626-.135.994v6.79H6.519c.05-11.025 0-12.167 0-12.167h4.039v1.73z" fill="#D6D6D6" fill-rule="evenodd"/></svg>