<svg width="64" height="68" xmlns="http://www.w3.org/2000/svg" xmlns:xlink="http://www.w3.org/1999/xlink"><defs><linearGradient x1="50%" y1="0%" x2="50%" y2="100%" id="c"><stop stop-color="#7CAC52" offset="0%"/><stop stop-color="#367A57" offset="100%"/></linearGradient><path id="b" d="M22 0l21.65 12.5v25L22 50 .35 37.5v-25z"/><filter x="-34.6%" y="-30%" width="169.3%" height="160%" filterUnits="objectBoundingBox" id="a"><feOffset in="SourceAlpha" result="shadowOffsetOuter1"/><feMorphology radius="2" in="SourceAlpha" result="shadowInner"/><feOffset in="shadowInner" result="shadowInner"/><feComposite in="shadowOffsetOuter1" in2="shadowInner" operator="out" result="shadowOffsetOuter1"/><feGaussianBlur stdDeviation="5" in="shadowOffsetOuter1" result="shadowBlurOuter1"/><feColorMatrix values="0 0 0 0 0 0 0 0 0 0 0 0 0 0 0 0 0 0 0.2 0" in="shadowBlurOuter1"/></filter></defs><g fill="none" fill-rule="evenodd"><g transform="translate(10 9)"><use fill="#000" filter="url(#a)" xlink:href="#b"/><path stroke="url(#c)" stroke-width="2" d="M22 1.155L1.35 13.077v23.846L22 48.845l20.65-11.922V13.077L22 1.155z"/></g><path d="M31.354 28.7v10.91l-3.909-3.705a.766.766 0 0 0-.716-.187.72.72 0 0 0-.526.498.676.676 0 0 0 .198.68l5.17 4.9a.767.767 0 0 0 1.043 0l5.17-4.9A.68.68 0 0 0 38 36.4a.7.7 0 0 0-.456-.647.768.768 0 0 0-.805.152l-3.908 3.705V28.7c0-.387-.33-.7-.739-.7-.408 0-.738.313-.738.7z" fill="#D6D6D6" fill-rule="nonzero"/></g></svg>