<svg xmlns="http://www.w3.org/2000/svg" width="105" height="105"><g fill="none"><path fill="#424242" d="M54.194 42.339c0-2.205-1.421-4.068-3.388-4.77v-7.085h13.549v30.484h3.387V30.484h10.161v30.484h3.387V27.097H64.355V16.935C64.355 7.597 56.758 0 47.419 0c-2.408 0-4.698.513-6.774 1.424A16.816 16.816 0 0 0 33.871 0c-9.338 0-16.936 7.597-16.936 16.935v10.162H0V105h44.032v-3.387H3.387v-71.13h13.548v7.087c-1.966.7-3.387 2.564-3.387 4.769 0 2.8 2.28 5.08 5.081 5.08 2.801 0 5.08-2.28 5.08-5.08 0-2.205-1.42-4.068-3.386-4.77v-7.085h27.096v7.086c-1.966.7-3.387 2.564-3.387 4.769 0 2.8 2.28 5.08 5.08 5.08a5.088 5.088 0 0 0 5.082-5.08zm-35.565 1.693c-.933 0-1.694-.76-1.694-1.693s.76-1.694 1.694-1.694c.933 0 1.694.76 1.694 1.694 0 .933-.76 1.693-1.694 1.693zm28.79-40.645c7.47 0 13.549 6.078 13.549 13.548v10.162H50.806V16.935c0-5.34-2.49-10.102-6.362-13.207.958-.217 1.952-.34 2.975-.34zm-16.935 23.71H20.323V16.935c0-7.47 6.078-13.548 13.548-13.548 1.023 0 2.017.124 2.976.34-3.874 3.106-6.363 7.869-6.363 13.208v10.162zm3.387 0V16.935c0-5 2.732-9.368 6.774-11.715 4.043 2.347 6.774 6.713 6.774 11.715v10.162H33.871zm13.548 15.242c0-.933.76-1.694 1.694-1.694.933 0 1.693.76 1.693 1.694 0 .933-.76 1.693-1.693 1.693s-1.694-.76-1.694-1.693z"/><path fill="#424242" d="M99.92 64.355H52.5a5.087 5.087 0 0 0-5.08 5.08V99.92a5.087 5.087 0 0 0 5.08 5.081h47.42c2.8 0 5.08-2.28 5.08-5.08V69.434c0-2.8-2.28-5.08-5.08-5.08zm1.693 35.564c0 .934-.76 1.694-1.694 1.694H52.5c-.933 0-1.694-.76-1.694-1.694V81.29h50.807v18.63zm0-22.016H50.806v-3.387h50.807v3.387zm0-6.774H50.806v-1.694c0-.933.76-1.693 1.694-1.693h47.42c.933 0 1.693.76 1.693 1.693v1.694z"/><path fill="#4E8F51" d="M81.29 98.226c2.033 0 3.838-.918 5.081-2.34 1.243 1.422 3.048 2.34 5.08 2.34a6.781 6.781 0 0 0 6.775-6.774 6.781 6.781 0 0 0-6.774-6.775c-2.033 0-3.838.918-5.081 2.34-1.243-1.422-3.048-2.34-5.08-2.34a6.781 6.781 0 0 0-6.775 6.775 6.781 6.781 0 0 0 6.774 6.774zm10.162-10.161a3.39 3.39 0 0 1 3.387 3.387 3.39 3.39 0 0 1-3.387 3.387 3.39 3.39 0 0 1-3.387-3.387 3.39 3.39 0 0 1 3.387-3.387zm-10.162 0a3.39 3.39 0 0 1 3.387 3.387 3.39 3.39 0 0 1-3.387 3.387 3.39 3.39 0 0 1-3.387-3.387 3.39 3.39 0 0 1 3.387-3.387zM71.129 33.871h3.387v27.097h-3.387z"/></g></svg>