<svg xmlns="http://www.w3.org/2000/svg" width="105" height="105"><g fill="none"><path fill="#424242" d="M50.402 11.184l-3.276-1.788a3.509 3.509 0 0 0-3.189-.088l-7.488 3.58-9.096-5.38a1.741 1.741 0 0 0-1.289-.198l-7 1.634a1.749 1.749 0 0 0-.846 2.935l6.54 6.6-4.962 2.372-8.683-3.24a1.74 1.74 0 0 0-1.913.47 1.75 1.75 0 0 0-.264 1.951l5.248 10.5c.297.593.903.968 1.566.968H21c.3 0 .593-.077.854-.222l6.549-3.665-.4 5.51a1.753 1.753 0 0 0 2.53 1.693l7-3.5c.444-.222.774-.624.906-1.106l2.177-7.994 9.674-4.828a3.495 3.495 0 0 0 1.935-3.07 3.488 3.488 0 0 0-1.823-3.134zm-27.493.455l3.268-.763 6.473 3.828-4.545 2.173-5.196-5.238zm15.44 7.798a1.748 1.748 0 0 0-.906 1.106l-2.177 7.994-3.55 1.777.41-5.684a1.749 1.749 0 0 0-.806-1.604 1.747 1.747 0 0 0-1.792-.054L20.543 28h-3.712l-2.778-5.556 5.218 1.946c.443.168.938.142 1.367-.06l7.85-3.753h.002l8.628-4.125.001-.002 8.327-3.981 3.278 1.79-10.374 5.178zm7.952 44.685c-.012-.016-.012-.037-.024-.051-.03-.037-.063-.068-.093-.105a21.146 21.146 0 0 0-1.444-1.645c-.026-.026-.049-.056-.073-.082a21.265 21.265 0 0 0-1.664-1.51c-.2-.163-.411-.307-.616-.46-.37-.28-.74-.559-1.129-.814-.29-.193-.592-.366-.893-.543a20.31 20.31 0 0 0-.988-.555 20.403 20.403 0 0 0-2.02-.91 20.85 20.85 0 0 0-1.002-.367 19.953 19.953 0 0 0-1.17-.341c-.316-.084-.63-.175-.952-.245a20.724 20.724 0 0 0-1.413-.244c-.265-.038-.526-.093-.791-.12A20.88 20.88 0 0 0 29.75 56c-.77 0-1.528.047-2.277.13-.266.027-.526.082-.79.12-.477.07-.95.142-1.415.243-.322.07-.635.161-.952.245-.393.105-.784.214-1.169.342-.34.112-.672.238-1.002.367a20.764 20.764 0 0 0-2.02.91c-.336.175-.663.362-.989.555-.299.177-.6.35-.892.543-.389.255-.76.533-1.129.813-.205.156-.416.298-.616.46-.581.475-1.136.979-1.664 1.51-.027.027-.05.057-.074.083a21.146 21.146 0 0 0-1.443 1.645c-.03.037-.063.068-.093.105-.012.016-.014.035-.025.05-2.779 3.56-4.45 8.025-4.45 12.879 0 4.996 1.76 9.585 4.683 13.193.01.014.012.034.023.047.02.027.045.048.066.074.448.546.924 1.07 1.425 1.566.241.242.502.457.752.684.282.254.559.512.853.751.3.245.616.47.929.695.27.194.537.388.815.57.33.216.663.415 1.003.61a20.517 20.517 0 0 0 1.906.976c.33.149.668.282 1.008.413.33.128.658.256.995.366.389.128.785.233 1.182.338.306.08.607.17.918.236.471.101.954.173 1.436.241.25.037.497.088.75.116A21.39 21.39 0 0 0 29.75 98c.761 0 1.512-.046 2.254-.126.252-.026.499-.079.75-.115.484-.07.965-.14 1.436-.242.31-.066.612-.156.919-.236.397-.105.794-.21 1.18-.338.337-.11.666-.238.996-.366.34-.131.678-.264 1.009-.413a20.517 20.517 0 0 0 1.906-.977c.339-.195.673-.395 1.002-.608.278-.182.546-.376.816-.57.313-.228.626-.45.929-.695.294-.238.57-.497.852-.751.252-.228.511-.443.752-.684.501-.5.977-1.02 1.425-1.567.021-.026.046-.047.066-.073.011-.014.013-.034.023-.047A20.88 20.88 0 0 0 50.75 77c0-4.855-1.671-9.319-4.449-12.878zm-27.618-.662c.178-.148.371-.278.556-.418.256-.194.508-.394.772-.572.345-.231.704-.441 1.064-.648.079-.045.154-.096.233-.138a21.675 21.675 0 0 0-1.794 3.645 23.565 23.565 0 0 1-2.084-.735c.4-.4.819-.777 1.253-1.134zm-3.546 3.938a25.45 25.45 0 0 0 3.334 1.276c-.518 2.112-.833 4.416-.927 6.84h-5.219a17.359 17.359 0 0 1 2.813-8.116zm.239 19.556a17.368 17.368 0 0 1-3-7.941h5.182a33.657 33.657 0 0 0 1.043 6.786c-1.13.334-2.212.717-3.225 1.155zm5.736 5.247a19.034 19.034 0 0 1-1.013-.616c-.14-.093-.277-.195-.413-.293-.314-.22-.622-.448-.919-.688-.149-.12-.294-.25-.44-.376-.181-.157-.358-.322-.535-.486.606-.228 1.26-.415 1.911-.606a21.32 21.32 0 0 0 1.6 3.173c-.065-.035-.128-.073-.191-.108zM28 94.13c-1.907-.81-3.603-2.916-4.851-5.807 1.549-.27 3.18-.42 4.851-.492v6.299zm0-9.825c-2.07.082-4.081.312-5.995.674a30.713 30.713 0 0 1-.938-5.968H28v5.294zm0-8.793h-6.962c.095-2.122.39-4.143.844-5.998a40.35 40.35 0 0 0 6.118.702v5.296zm0-8.789a37.379 37.379 0 0 1-5.056-.564c1.264-3.14 3.044-5.435 5.056-6.29v6.854zm16.364.672a17.385 17.385 0 0 1 2.813 8.117h-5.219c-.094-2.424-.41-4.729-.927-6.841a24.975 24.975 0 0 0 3.333-1.276zm-5.938-5.574c.36.207.72.417 1.063.648.264.178.516.378.772.572.185.14.377.271.558.418.432.357.852.733 1.253 1.134-.65.272-1.355.511-2.085.735a21.675 21.675 0 0 0-1.793-3.645c.078.044.154.095.232.138zM31.5 59.87c2.013.856 3.792 3.15 5.056 6.291-1.608.293-3.31.487-5.056.564V59.87zm0 10.348a40.301 40.301 0 0 0 6.116-.702 31.08 31.08 0 0 1 .844 5.998H31.5v-5.296zm0 23.914v-6.299c1.671.072 3.302.223 4.851.492-1.248 2.891-2.945 4.996-4.851 5.807zm0-9.825v-5.293h6.934a30.735 30.735 0 0 1-.938 5.967 41.086 41.086 0 0 0-5.996-.674zm9.672 5.922c-.145.126-.288.256-.439.377a16.73 16.73 0 0 1-.919.687c-.138.098-.273.198-.413.293a17.507 17.507 0 0 1-1.202.724 21.47 21.47 0 0 0 1.6-3.173c.65.191 1.303.378 1.91.606-.176.164-.353.329-.537.486zm2.954-3.274a29.104 29.104 0 0 0-3.225-1.155c.551-2.093.915-4.37 1.043-6.787h5.182a17.408 17.408 0 0 1-3 7.942z"/><path fill="#424242" d="M103.25 3.5H59.5V1.75A1.75 1.75 0 0 0 57.75 0h-56A1.75 1.75 0 0 0 0 1.75v101.5c0 .968.784 1.75 1.75 1.75h56a1.75 1.75 0 0 0 1.75-1.75v-1.75h43.75a1.75 1.75 0 0 0 1.75-1.75V5.25a1.75 1.75 0 0 0-1.75-1.75zM56 101.5H3.5v-98H56v98zm45.5-3.5h-42V7h42v91z"/><path fill="#4E8F51" d="M43.75 38.5h-31.5c-.964 0-1.75-.784-1.75-1.75V35H7v1.75A5.256 5.256 0 0 0 12.25 42h31.5c.964 0 1.75.784 1.75 1.75s-.786 1.75-1.75 1.75h-10.5A5.256 5.256 0 0 0 28 50.75v1.75h3.5v-1.75c0-.966.786-1.75 1.75-1.75h10.5A5.256 5.256 0 0 0 49 43.75a5.256 5.256 0 0 0-5.25-5.25zM7 28h3.5v3.5H7z"/><path fill="#424242" d="M78.75 17.5a5.256 5.256 0 0 0-5.25 5.25A5.256 5.256 0 0 0 78.75 28 5.256 5.256 0 0 0 84 22.75a5.256 5.256 0 0 0-5.25-5.25zm0 7c-.964 0-1.75-.784-1.75-1.75S77.786 21 78.75 21s1.75.784 1.75 1.75-.786 1.75-1.75 1.75z"/><path fill="#424242" d="M96.25 10.5h-31.5A1.75 1.75 0 0 0 63 12.25V49c0 .968.784 1.75 1.75 1.75h31.5A1.75 1.75 0 0 0 98 49V12.25a1.75 1.75 0 0 0-1.75-1.75zM94.5 47.25h-28v-3.5h28v3.5zm-26.48-7l3.73-5.595 3.73 5.595h-7.46zm13.887 0l5.593-8.948 5.593 8.948H81.907zM94.5 35.898l-5.516-8.826c-.64-1.021-2.328-1.021-2.968 0l-7.313 11.703-5.497-8.244c-.65-.975-2.263-.975-2.912 0L66.5 36.22V14h28v21.898z"/><path fill="#4E8F51" d="M64.75 64.75h31.5v3.5h-31.5zm.21 8.75h31.5V77h-31.5zm-.21 8.75h31.5v3.5h-31.5zm7 8.75h3.5v3.5h-3.5zm7 0h3.5v3.5h-3.5zm7 0h3.5v3.5h-3.5zM70 56h21v3.5H70z"/></g></svg>